<svg id="bee" xmlns="http://www.w3.org/2000/svg" viewBox="0 0 72 55">
  <defs>
    <style>
      .cls-1 {
        fill: none;
        stroke: red;
        stroke-miterlimit: 10;
        stroke-width: 0.1px;
      }

      .cls-2 {
        fill: #f7b023;
      }
    </style>
  </defs>
  <title>bee</title>
  <path class="cls-1" d="M683,456.38" transform="translate(-320.64 -106.17)"/>
  <g>
    <path class="cls-2" d="M1031.43,158.62C943,90.67,799.37,277.32,743.69,333l-61-26.16L622.31,333C569.26,280,431.93,100.86,346.07,151.72,245.13,211.52,470,435,578.72,376.6L604.87,394l-104.63,61-8.72,69.76L439.21,551l8.72,8.72,52.32-17.44,17.44-78.47,87.19-52.32s25.94,25.9,77.78,26.14v0a5.72,5.72,0,0,1,.7,0v0c51.84-.24,77.78-26.14,77.78-26.14l87.19,52.32,17.44,78.47,52.32,17.44,8.72-8.72-52.32-26.16-8.72-69.76L761.13,394l26.16-17.44C886.95,429.16,1093.72,265.87,1031.43,158.62Z" transform="translate(-320.64 -106.17)"/>
    <path class="cls-2" d="M788.76,618.86V510.33l-23.21-32v-45.8c-56.27,28.55-108.76,28.42-165.09,0v45.8l-23.21,32V618.86l-37.33,37,4.39,6,48.3-36.39V512.52l9.1-6.59v18.51c44,32.28,118.46,31.39,162.59,0V505.94l9.1,6.59V625.45l48.3,36.39,4.39-6Z" transform="translate(-320.64 -106.17)"/>
    <path class="cls-2" d="M683,565.18c-39.9,0-77.24-21.43-77.24-21.43C618.13,590.83,686.37,590.43,683,635c-1.53-44.57,63.74-43.93,77.24-91.25C760.24,543.75,722.89,565.18,683,565.18Z" transform="translate(-320.64 -106.17)"/>
    <path class="cls-2" d="M879.93,111.28c-45.8,43-55.63,59-70.85,119.89L756.77,266c-10.1-14-12.45-31-24.9-44.17,27-33.58,41.82-73.66,49.65-115.71h-6.17c-8,40.32-20.51,80.8-50.77,110-27.48-22.29-55.68-22.29-83.16,0-30.18-29.15-42.89-69.84-50.77-110h-6.17c7.83,42,22.66,82.13,49.65,115.71C621,235.21,621.33,252.68,609.23,266l-52.32-34.88c-15.21-60.85-25-76.9-70.85-119.89l-7.63,6.54c44,44,54.7,61.86,69.76,122.07C574.64,261.92,600,280,618,309.65l65-30.78,65,30.78C766.15,280,791.26,262,817.8,239.89c15.05-60.21,25.77-78.09,69.76-122.07Z" transform="translate(-320.64 -106.17)"/>
  </g>
</svg>
