<?xml version="1.0" encoding="utf-8"?>
<!-- Generator: Adobe Illustrator 21.0.2, SVG Export Plug-In . SVG Version: 6.00 Build 0)  -->
<svg version="1.1" id="Слой_1" xmlns="http://www.w3.org/2000/svg" xmlns:xlink="http://www.w3.org/1999/xlink" x="0px" y="0px"
	 viewBox="0 0 800 800" style="enable-background:new 0 0 800 800;" xml:space="preserve">
<style type="text/css">
	.st0{fill:none;stroke:#FF0000;stroke-width:0.1;stroke-miterlimit:10;}
	.st1{fill:#F7B023;}
</style>
<path class="st0" d="M400,485.8"/>
<g>
	<path class="st1" d="M748.4,188.1c0,0-26.2-26.2-87.2,0S486.8,336.3,486.8,336.3l-26.2,26.2l-61-26.2l-60.3,26.2l-26.2-26.2
		c0,0-113.4-122.1-174.4-148.2s-87.2,0-87.2,0s-26.2,34.9,8.7,95.9S164.9,406,217.2,414.8c52.3,8.7,78.5-8.7,78.5-8.7l26.2,17.4
		l-104.6,61l-8.7,69.8l-52.3,26.2l8.7,8.7l52.3-17.4l17.4-78.5l87.2-52.3c0,0,25.9,25.9,77.8,26.1v0c0.1,0,0.2,0,0.3,0
		c0.1,0,0.2,0,0.3,0v0c51.8-0.2,77.8-26.1,77.8-26.1l87.2,52.3l17.4,78.5l52.3,17.4l8.7-8.7l-52.3-26.2l-8.7-69.8l-104.6-61
		l26.2-17.4c0,0,26.2,17.4,78.5,8.7C635.1,406,704.8,345,739.7,284S748.4,188.1,748.4,188.1z"/>
	<path class="st1" d="M505.8,648.3V539.8l-23.2-32V462c0,0-44.2,23.5-82.5,23.8c-38.3-0.3-82.5-23.8-82.5-23.8v45.8l-23.2,32v108.5
		l-37.3,37l4.4,6l48.3-36.4V542l9.1-6.6v18.5c0,0,26.8,22.7,81.3,22.7c54.5,0,81.3-22.7,81.3-22.7v-18.5l9.1,6.6v112.9l48.3,36.4
		l4.4-6L505.8,648.3z"/>
	<path class="st1" d="M400,594.6c-39.9,0-77.2-21.4-77.2-21.4s5.5,25,27.3,42.9c21.8,17.9,42.5,16.2,44.8,20.8s5.1,27.6,5.1,27.6
		s2.9-23.1,5.1-27.6s23.1-2.9,44.8-20.8c21.8-17.9,27.3-42.9,27.3-42.9S439.9,594.6,400,594.6z"/>
	<path class="st1" d="M596.9,140.7l-53.4,50.1l-17.4,69.8l-52.3,34.9l-8.7-8.7l-4-17.8c-4.3-10-12.2-17.6-12.2-17.6
		s17.2-21.5,25.5-38.8c17.3-36.3,24.2-76.9,24.2-76.9h-6.2c0,0-6.6,35.8-18.7,64.3c-12.1,28.5-32,45.8-32,45.8s-24.2-18.5-41.6-18.7
		c-17.4,0.2-41.6,18.7-41.6,18.7s-19.9-17.3-32-45.8c-12.1-28.5-18.7-64.3-18.7-64.3h-6.2c0,0,6.9,40.6,24.2,76.9
		c8.3,17.3,25.5,38.8,25.5,38.8s-7.9,7.6-12.2,17.6l-4,17.8l-8.7,8.7l-52.3-34.9l-17.4-69.8l-53.4-50.1l-7.6,6.5l52.3,52.3
		l17.4,69.8l52.3,43.6l17.4,26.2l65-30.8l65,30.8l17.4-26.2l52.3-43.6l17.4-69.8l52.3-52.3L596.9,140.7z"/>
</g>
</svg>
