<svg id="figure" xmlns="http://www.w3.org/2000/svg" xmlns:xlink="http://www.w3.org/1999/xlink" viewBox="0 0 584.53 607.42"><defs><style>.cls-1{fill:none;}.cls-2{fill:#c7c5ce;}.cls-3{fill:#edebe8;}.cls-4{clip-path:url(#clip-path);}.cls-5{fill:#f7b023;}</style><clipPath id="clip-path" transform="translate(-107.74 -96.19)"><rect class="cls-1" x="54" y="176" width="692.7" height="389.46"/></clipPath></defs><title>bee_light_figure</title><path class="cls-2" d="M691.76,349a49.93,49.93,0,0,0-6.19-18L564.43,121.19a50,50,0,0,0-43.3-25H278.87a50,50,0,0,0-43.3,25L114.43,331a49.93,49.93,0,0,0-6.32,19s-.37,87.06-.37,93.81a50,50,0,0,0,6.7,25L235.57,678.62a50,50,0,0,0,43.3,25H521.13a50,50,0,0,0,43.3-25L685.57,468.81a50,50,0,0,0,6.7-25C692.27,437.15,691.76,349,691.76,349Z" transform="translate(-107.74 -96.19)"/><path class="cls-3" d="M511.14,113.31H288.86a50,50,0,0,0-43.3,25L134.42,330.81a50,50,0,0,0,0,50l111.14,192.5a50,50,0,0,0,43.3,25H511.14a50,50,0,0,0,43.3-25l111.14-192.5a50,50,0,0,0,0-50L554.44,138.31A50,50,0,0,0,511.14,113.31Z" transform="translate(-107.74 -96.19)"/><g class="cls-4"><g class="cls-4"><path class="cls-5" d="M577,256.44s-13.26-13.26-44.22,0-88.43,75.17-88.43,75.17l-13.26,13.26-31-13.26-30.6,13.26L356.31,331.6s-57.48-61.9-88.43-75.17-44.22,0-44.22,0-13.26,17.69,4.42,48.64,53.06,61.9,79.59,66.32S347.47,367,347.47,367l13.26,8.84-53.06,31-4.42,35.37-26.53,13.27,4.42,4.42L307.67,451l8.84-39.79,44.22-26.53s13.15,13.13,39.44,13.25h.35c26.29-.12,39.44-13.25,39.44-13.25l44.22,26.53L493,451l26.53,8.84,4.42-4.42-26.53-13.27L493,406.77l-53.06-31L453.23,367s13.27,8.84,39.79,4.42,61.9-35.37,79.59-66.32S577,256.44,577,256.44" transform="translate(-107.74 -96.19)"/><path class="cls-5" d="M454,489.83v-55l-11.77-16.22V395.34s-22.43,11.93-41.86,12.09c-19.43-.16-41.86-12.09-41.86-12.09v23.22l-11.77,16.22v55l-18.93,18.77,2.23,3,24.5-18.45V435.9l4.61-3.34v9.38s13.57,11.53,41.22,11.53,41.22-11.53,41.22-11.53v-9.38l4.61,3.34v57.26l24.5,18.45,2.23-3Z" transform="translate(-107.74 -96.19)"/><path class="cls-5" d="M400.35,462.61c-20.23,0-39.17-10.87-39.17-10.87A43.15,43.15,0,0,0,375,473.47c11,9.06,21.57,8.23,22.72,10.54s2.61,14,2.61,14,1.46-11.69,2.61-14,11.69-1.48,22.72-10.54a43.15,43.15,0,0,0,13.83-21.74s-18.94,10.87-39.17,10.87" transform="translate(-107.74 -96.19)"/><path class="cls-5" d="M500.21,232.43l-27.08,25.42-8.84,35.37-26.53,17.69-4.42-4.42-2-9a31.26,31.26,0,0,0-6.17-8.93s8.71-10.91,12.91-19.7c8.78-18.4,12.27-39,12.27-39h-3.13s-3.37,18.16-9.5,32.6a69.54,69.54,0,0,1-16.24,23.21s-12.27-9.37-21.08-9.49c-8.82.13-21.08,9.49-21.08,9.49A69.53,69.53,0,0,1,363,262.44c-6.13-14.43-9.5-32.6-9.5-32.6H350.4s3.49,20.57,12.27,39c4.19,8.79,12.91,19.7,12.91,19.7a31.26,31.26,0,0,0-6.17,8.93l-2,9-4.42,4.42-26.53-17.69-8.84-35.37-27.08-25.42-3.87,3.32,26.53,26.53L332,297.65l26.53,22.11L367.37,333l33-15.61,33,15.61,8.84-13.26,26.53-22.11,8.84-35.37,26.53-26.53Z" transform="translate(-107.74 -96.19)"/></g></g></svg>