<svg id="figure" xmlns="http://www.w3.org/2000/svg" viewBox="0 0 58 52">
	<defs>
		<style>
			.cls-1{
			fill:#c7c5ce;
			}
			.cls-2{
			fill:#edebe8;
			}
		</style>
	</defs>
	<title>light_figure</title>
	<path class="cls-1" d="M521.13,140.19H278.87a50,50,0,0,0-43.3,25L114.43,375a50,50,0,0,0,0,50L235.57,634.81a50,50,0,0,0,43.3,25H521.13a50,50,0,0,0,43.3-25L685.57,425a50,50,0,0,0,0-50L564.43,165.19A50,50,0,0,0,521.13,140.19Z" transform="translate(-107.74 -140.19)" />
	<path class="cls-2" d="M505.54,167H294.46a50,50,0,0,0-43.3,25L145.61,374.81a50,50,0,0,0,0,50L251.15,607.62a50,50,0,0,0,43.3,25H505.54a50,50,0,0,0,43.3-25L654.39,424.81a50,50,0,0,0,0-50L548.85,192A50,50,0,0,0,505.54,167Z" transform="translate(-107.74 -140.19)" />
</svg>